
        <svg
          class="css-1j8o68f"
          height="51.265593428384385"
          viewBox="0 0 369.92907368941104 51.265593428384385"
          width="369.92907368941104"
        >
          <defs id="SvgjsDefs7362"></defs>
          <g
            featurekey="symbolFeature-0"
            fill="#75fcce"
            id="SvgjsG7363"
            transform="matrix(0.5807092631058905,0,0,0.5807092631058905,0,-2.837345273456058)"
          >
            <g xmlns="http://www.w3.org/2000/svg">
              <path
                d="M74.215,24.768l5.252-5.239c1.562-1.576,4.312-1.587,5.889,0c1.628,1.631,1.628,4.261,0,5.89l-5.25,5.247   c-0.774,0.78-1.826,1.224-2.945,1.224c-1.127,0-2.215-0.469-2.986-1.265c-0.754-0.755-1.189-1.805-1.189-2.925   C72.997,26.593,73.427,25.543,74.215,24.768z M45.836,9.054c0-2.302,1.867-4.168,4.155-4.168c2.307,0,4.172,1.866,4.172,4.168   v7.417c0,2.298-1.865,4.165-4.172,4.165c-2.289,0-4.155-1.867-4.155-4.165V9.054z M49.673,25.805   c15.99,0,28.953,12.97,28.953,28.953c0,0.775-0.055,1.543-0.104,2.31h-7.665c0.096-0.758,0.15-1.534,0.15-2.31   c0-11.752-9.564-21.32-21.333-21.32c-11.76,0-21.309,9.568-21.309,21.32c0,0.775,0.049,1.552,0.132,2.31h-7.666   c-0.05-0.767-0.091-1.534-0.091-2.31C20.74,38.775,33.704,25.805,49.673,25.805z M14.643,19.528   c1.576-1.598,4.334-1.576,5.898,0.013l5.239,5.255c0.775,0.747,1.215,1.784,1.223,2.892c0.008,1.131-0.422,2.189-1.223,2.986   c-0.768,0.78-1.812,1.215-2.945,1.215c-1.106,0-2.157-0.427-2.945-1.215l-5.247-5.256c-0.78-0.767-1.211-1.804-1.211-2.925   C13.419,21.383,13.855,20.329,14.643,19.528z M0,54.882c0-2.294,1.867-4.16,4.155-4.16h7.425c2.307,0,4.173,1.866,4.173,4.16   c0,2.299-1.867,4.177-4.173,4.177H4.156C1.867,59.059,0,57.181,0,54.882z M25.088,93.167H6.845c-0.602,0-1.161-0.314-1.485-0.819   c-0.298-0.499-0.332-1.142-0.058-1.667l13.841-27.992c0.29-0.59,0.9-0.961,1.555-0.961h18.243c0.597,0,1.161,0.298,1.468,0.815   c0.323,0.512,0.357,1.142,0.075,1.671L26.649,92.201C26.361,92.795,25.751,93.167,25.088,93.167z M49.66,93.167H31.4   c-0.589,0-1.154-0.314-1.459-0.819c-0.323-0.499-0.345-1.153-0.083-1.667l13.854-27.992c0.29-0.59,0.887-0.961,1.55-0.961h18.243   c0.614,0,1.162,0.298,1.485,0.815c0.307,0.512,0.34,1.142,0.07,1.671L51.207,92.201C50.93,92.795,50.323,93.167,49.66,93.167z    M89.631,64.214L75.777,92.201c-0.29,0.594-0.897,0.966-1.561,0.966H55.978c-0.611,0-1.161-0.316-1.481-0.82   c-0.317-0.498-0.344-1.152-0.074-1.668l13.846-27.99c0.299-0.59,0.887-0.962,1.564-0.962h18.237c0.606,0,1.154,0.298,1.478,0.816   C89.853,63.054,89.888,63.684,89.631,64.214z M95.84,59.059h-7.438c-2.29,0-4.163-1.878-4.163-4.177c0-2.294,1.873-4.16,4.163-4.16   h7.438c2.294,0,4.16,1.866,4.16,4.16C100,57.181,98.134,59.059,95.84,59.059z"
              ></path>
            </g>
          </g>
          <g
            featurekey="nameFeature-0"
            fill="#75fcce"
            id="SvgjsG7364"
            transform="matrix(0.7448215138199884,0,0,0.7448215138199884,78,6.1217253674889225)"
          >
            <path
              d="M5.12 33.4 c1.96 0.88 3.68 1.32 5.12 1.32 c0.72 0 1.16 -0.04 1.36 -0.16 c0.92 -0.24 1.56 -0.76 1.96 -1.56 l0.04 -0.08 c0.2 -0.36 0.28 -0.8 0.28 -1.36 c0 -0.28 -0.08 -0.6 -0.24 -1 l-0.08 -0.16 c-0.52 -1.08 -1.68 -1.8 -3.8 -2.48 l-0.4 -0.12 l-0.12 -0.04 c-3.24 -0.96 -5.32 -2.48 -6.32 -4.6 c-0.4 -0.8 -0.6 -1.68 -0.6 -2.64 c0 -1 0.2 -1.96 0.6 -2.96 l0.08 -0.16 c0.92 -1.84 2.4 -3.04 4.36 -3.64 c1.4 -0.2 2.2 -0.32 2.4 -0.32 c2.72 0 5.88 1.12 9.44 3.32 l0.76 -1.24 c-3.88 -2.36 -7.24 -3.52 -10.16 -3.52 c-1.16 0 -2.12 0.12 -2.8 0.4 c-2.36 0.64 -4.12 2.08 -5.28 4.36 l-0.12 0.28 c-0.48 1.16 -0.72 2.32 -0.72 3.48 c0 1.24 0.24 2.32 0.72 3.28 c1.24 2.48 3.64 4.24 7.24 5.32 l0.48 0.16 c1.64 0.52 2.6 1.08 2.96 1.72 l0.04 0.08 c0.08 0.12 0.12 0.28 0.12 0.48 c0 0.36 -0.04 0.6 -0.16 0.8 c-0.28 0.64 -0.96 0.96 -2.04 0.96 c-1.72 0 -4.2 -0.88 -6.12 -2.12 l-0.6 -0.36 l-3.52 5.68 l0.6 0.36 c2.84 1.92 6.6 3.12 9.64 3.12 c1 0 1.92 -0.12 2.76 -0.36 c2.36 -0.68 4.12 -2.16 5.28 -4.4 l0.16 -0.28 c0.48 -1.24 0.72 -2.4 0.72 -3.48 c0 -0.96 -0.32 -2.16 -0.92 -3.64 c-1.08 -2.16 -3.36 -3.8 -6.92 -4.92 l-0.56 -0.16 c-1.12 -0.36 -1.88 -0.72 -2.24 -1 c-0.48 -0.4 -0.76 -0.68 -0.88 -0.84 l-0.08 -0.44 c0 -0.4 0.08 -0.76 0.28 -1.04 c0.32 -0.6 0.64 -0.76 1.92 -0.76 c1.72 0 4.2 0.88 6.12 2.12 l0.6 0.36 l2.16 -3.44 l-0.64 -0.36 c-2.44 -1.6 -5.76 -2.72 -8.2 -2.72 c-1.08 0 -1.76 0.08 -2.12 0.28 c-1.64 0.48 -2.88 1.52 -3.68 3.08 c-0.36 0.68 -0.52 1.48 -0.52 2.48 c0 0.76 0.16 1.48 0.48 2.16 c0.84 1.8 2.72 3.12 5.64 4 l0.52 0.16 l1.08 0.4 c0.6 0.24 1.24 0.56 1.96 0.96 c1.28 0.76 1.92 1.84 1.92 3.28 c0 0.8 -0.2 1.56 -0.56 2.24 c-0.84 1.48 -2.28 2.24 -4.28 2.24 c-1.36 0 -3.28 -0.52 -5.76 -1.52 l-0.68 1.16 l-0.04 0.08 c2.28 1.16 4.44 1.72 6.52 1.72 c1.16 0 2.24 -0.24 3.2 -0.72 c1.88 -0.92 3.04 -2.84 3.04 -5.24 c0 -3.8 -2.92 -4.92 -6 -6 l-0.52 -0.16 c-2.52 -0.76 -4.08 -1.8 -4.72 -3.2 c-0.24 -0.48 -0.36 -1 -0.36 -1.6 c0 -0.76 0.12 -1.36 0.4 -1.88 c0.64 -1.16 1.56 -1.92 2.76 -2.28 l1.6 -0.2 c2.12 0 4.44 0.72 6.96 2.12 l-0.64 1 c-2.6 -1.28 -4.68 -1.92 -6.2 -1.92 c-0.76 0 -1.2 0.04 -1.4 0.16 c-0.88 0.24 -1.52 0.76 -1.96 1.6 l-0.04 0.08 c-0.2 0.36 -0.28 0.84 -0.28 1.44 c0 0.44 0.08 0.76 0.2 0.96 c0.52 1.08 1.88 1.96 4.04 2.6 l0.52 0.16 l1 0.32 c0.12 0.04 0.76 0.32 1.92 0.88 c1.56 0.88 2.68 2 3.32 3.32 c0.4 0.8 0.6 1.68 0.6 2.64 c0 1.16 -0.2 2.16 -0.64 3 l-0.08 0.16 c-0.92 1.84 -2.4 3.04 -4.36 3.64 c-1.4 0.2 -2.2 0.32 -2.4 0.32 c-2.04 0 -4.68 -0.76 -7.12 -1.92 l-1.12 -0.6 l2 -3.24 z M41.485 40 c-2.44 0 -4.76 -0.64 -6.96 -1.92 c-4.4 -2.52 -7.12 -7.16 -7.12 -12.12 c0 -2.48 0.64 -4.8 1.92 -7 c2.52 -4.32 7.24 -7.04 12.16 -7.04 c2.44 0 4.8 0.64 7 1.88 c4.4 2.56 7.04 7.32 7.04 12.16 c0 2.44 -0.64 4.72 -1.88 6.92 c-2.56 4.4 -7.2 7.12 -12.16 7.12 z M41.485 13.32 c-2.28 0 -4.4 0.56 -6.32 1.68 c-3.88 2.24 -6.28 6.36 -6.28 10.96 c0 2.28 0.56 4.4 1.68 6.32 c2.24 3.88 6.32 6.28 10.92 6.28 c2.28 0 4.4 -0.56 6.36 -1.68 c3.88 -2.24 6.28 -6.32 6.28 -10.92 c0 -2.28 -0.56 -4.4 -1.68 -6.36 c-2.24 -3.88 -6.48 -6.28 -10.96 -6.28 z M41.485 37.28 c-2 0 -3.88 -0.52 -5.68 -1.52 c-3.56 -2.04 -5.76 -5.76 -5.76 -9.8 c0 -2.04 0.52 -3.92 1.52 -5.68 c2.04 -3.52 5.64 -5.6 9.92 -5.6 c2.16 0 4.12 0.48 5.84 1.44 c3.44 1.92 5.44 5.52 5.44 9.84 c0 2.04 -0.48 3.92 -1.44 5.64 c-1.96 3.48 -5.8 5.68 -9.84 5.68 z M41.485 16.08 c-1.8 0 -3.44 0.44 -4.96 1.32 c-3.08 1.76 -4.96 4.92 -4.96 8.56 c0 1.76 0.44 3.4 1.36 4.92 c1.76 3.08 4.88 5 8.56 5 c1.8 0 3.44 -0.44 4.96 -1.36 c3 -1.76 4.92 -5.04 4.92 -8.56 c0 -1.8 -0.44 -3.48 -1.32 -5 c-1.76 -3.04 -5.08 -4.88 -8.56 -4.88 z M41.485 34.68 c-1.56 0 -3.04 -0.4 -4.36 -1.16 c-2.68 -1.56 -4.4 -4.52 -4.4 -7.56 c0 -1.56 0.4 -3.04 1.2 -4.4 c1.56 -2.72 4.32 -4.28 7.56 -4.28 c1.56 0 3 0.4 4.32 1.16 c2.68 1.56 4.24 4.28 4.24 7.52 c0 1.6 -0.36 3.04 -1.08 4.36 c-1.48 2.64 -4.32 4.36 -7.48 4.36 z M41.485 18.72 c-1.28 0 -2.48 0.32 -3.6 0.96 c-2.24 1.32 -3.68 3.68 -3.68 6.28 c0 1.28 0.32 2.48 0.96 3.56 c1.28 2.24 3.6 3.6 6.32 3.6 c1.32 0 2.56 -0.32 3.64 -0.96 c2.2 -1.28 3.52 -3.64 3.52 -6.2 c0 -1.32 -0.32 -2.52 -0.96 -3.64 c-1.28 -2.24 -3.64 -3.6 -6.2 -3.6 z M63.49 11.96 l4.12 0 l0 25.4 l-1.48 0 l0 -23.96 l-1.2 0 l0 25.16 l13.16 0 l0 -3.84 l-6.52 0 l0 -1.44 l7.96 0 l0 6.72 l-16.04 0 l0 -28.04 z M68.93 11.96 l1.44 0 l0 23.92 l6.44 0 l0 1.48 l-7.88 0 l0 -25.4 z M91.935 37.52 l1.76 0 l1.4 -3.36 l10.44 0.04 l2.56 5.8 l7.36 -0.04 l-12.6 -27.96 l-2.56 0 l-12.52 27.96 l7.8 0 l1.36 -3.2 l7.96 0 l-0.6 -1.36 l-8.24 0 l-1.28 3.16 l-4.76 0 l11.08 -25.2 l0.96 0 l11.12 25.2 l-4.24 0 l-2.56 -5.72 l-12.4 0 z M96.69500000000001 30.48 l4.88 -11.64 l8.2 18.64 l1.64 0 l-9.84 -21.92 l-7.2 16.16 l11.6 0 l-4.4 -9.72 l-3.04 7.32 l1.56 0 l1.48 -3.64 l2.2 4.8 l-7.08 0 z M143.02000000000004 38.56 l-4.6 0 l-5.52 -10.28 l-3.72 0.04 l0 10.24 l-4.04 0 l0 -26.56 l-1.44 0 l0 28 l6.96 0 l0 -10.28 l1.4 0 l5.48 10.28 l7.88 0 l-5.52 -10.32 l-1.32 0.52 z M133.50000000000003 13.440000000000001 c5.8 0 9.08 2.6 9.08 7.36 c0 4.32 -2.6 6.96 -7.12 7.44 l-1.08 0.12 l5 9.24 l1.64 0 l-4.36 -8.12 c4.8 -0.84 7.36 -3.76 7.36 -8.68 c0 -1.64 -0.36 -3.12 -1.04 -4.44 c-1.6 -2.84 -4.88 -4.36 -9.48 -4.36 l-7.08 0 l0 25.56 l1.44 0 l0 -24.12 l5.64 0 z M133.18000000000004 27.04 c5.48 0 8.08 -1.88 8.08 -6.04 c0 -3.96 -2.72 -6.2 -7.08 -6.2 l-5.04 0 l0 4.2 l4.6 0 c2.12 0 3.2 0.6 3.2 1.8 c0 1.4 -1.32 2.08 -4 2.08 l-2.32 0 l0 -2.48 l-1.48 0 l0 3.92 l3.8 0 c3.56 0 5.44 -1.24 5.44 -3.52 c0 -0.72 -0.16 -1.28 -0.52 -1.72 c-0.68 -1 -2.04 -1.48 -4.12 -1.48 l-3.12 0 l0 -1.36 l3.56 0 c3.56 0 5.64 1.72 5.64 4.76 c0 3.16 -2.12 4.64 -6.64 4.64 l-4 0 l0 1.4 l4 0 z M174.71 12.079999999999998 l1.44 0 l0 26.48 l15.32 0 l0 -4 l-11.28 0 l0 -3.84 l1.44 0 l0 2.4 l11.28 0 l0 6.88 l-18.2 0 l0 -27.92 z M177.43 12.079999999999998 l15.28 0 l0 6.84 l-9.6 0 l0 -1.44 l8.16 0 l0 -3.96 l-12.4 0 l0 11.56 l9.32 0 l0 1.44 l-10.76 0 l0 -14.44 z M177.43 27.8 l12.16 0 l0 -4 l-9.4 0 l0 -9.08 l9.68 0 l0 1.44 l-8.24 0 l0 6.2 l9.4 0 l0 6.88 l-12.16 0 l0 6.64 l11.2 0 l0 1.44 l-12.64 0 l0 -9.52 z M221.395 28.6 l-16.36 -16.6 l-2 0 l19.8 20.12 l0 -17.32 l-1.44 0 l0 13.8 z M220.07500000000002 25.4 l0 -12 l4.08 0 l0 25.16 l-0.68 0 l-0.16 -0.16 l-18.32 -18.56 l0 20.16 l4.2 0 l0 -11.8 l-1.48 -1.52 l0 11.88 l-1.28 0 l0 -15.2 l16.6 16.64 l2.56 0 l0 -28 l-6.96 0 l0 11.84 z M203.675 40 l0 -23.4 l19.16 19.44 l0 -2.12 l-20.56 -20.76 l0 26.84 l1.4 0 z M247.56000000000003 40 c-2.48 0 -4.8 -0.64 -6.92 -1.92 c-4.32 -2.52 -7.04 -7.28 -7.04 -12.04 c0 -2.48 0.64 -4.84 1.92 -7.04 c2.56 -4.44 6.96 -6.96 12.04 -6.96 c3.48 0 6.84 1.32 9.4 3.68 c0.08 0.04 0.2 0.12 0.32 0.24 l0.28 0.32 l-1 1.04 l-0.56 -0.56 c-2.28 -2.12 -5.28 -3.28 -8.44 -3.28 c-2.24 0 -4.32 0.56 -6.24 1.68 c-3.88 2.24 -6.28 6.4 -6.28 10.88 c0 2.24 0.56 4.32 1.68 6.24 c2.24 3.88 6.36 6.28 10.84 6.28 c2.72 0 4.8 -0.76 8.2 -2.96 l0 -9.2 l-8.76 0 l0 -1.44 l10.16 0 l0 11.4 l-0.28 0.24 c-3.56 2.44 -6.12 3.4 -9.32 3.4 z M247.56000000000003 37.28 c-2 0 -3.88 -0.52 -5.6 -1.52 c-3.52 -2.04 -5.68 -5.72 -5.68 -9.72 c0 -2.04 0.52 -3.96 1.52 -5.72 c2.04 -3.48 5.64 -5.56 9.76 -5.56 c2.28 0 4.48 0.72 6.6 2.12 l1.04 0.8 l0.52 0.52 l-2.88 3.12 l-1.28 -1 c-1.16 -0.84 -2.52 -1.28 -4 -1.28 c-1.2 0 -2.36 0.32 -3.44 0.92 c-2.2 1.28 -3.52 3.52 -3.52 6.08 c0 1.2 0.32 2.36 0.96 3.44 c1.24 2.2 3.48 3.52 6 3.52 c1 0 1.92 -0.2 2.76 -0.64 l0 -0.64 l-3.32 0 l0 -4.08 l7.48 0 l0 7.12 l-0.92 0.72 c-1.8 1.24 -3.64 1.8 -6 1.8 z M247.56000000000003 16.2 c-1.76 0 -3.4 0.44 -4.92 1.32 c-3.04 1.76 -4.92 5 -4.92 8.52 c0 1.76 0.44 3.4 1.32 4.88 c1.76 3.04 5 4.92 8.52 4.92 c1.96 0 3.72 -0.52 5.2 -1.52 l0.28 -0.24 l0 -5 l-4.6 0 l0 1.2 l3.32 0 l0 3 l-0.4 0.2 c-1.32 0.64 -2.56 0.96 -3.8 0.96 c-1.44 0 -2.84 -0.4 -4.16 -1.16 c-2.68 -1.56 -4.24 -4.16 -4.24 -7.24 c0 -1.52 0.36 -2.92 1.12 -4.24 c1.48 -2.56 4.2 -4.16 7.28 -4.16 c1.72 0 3.36 0.52 4.84 1.52 l0.28 0.2 l0.96 -1.04 l-0.32 -0.24 c-1.72 -1.24 -3.64 -1.88 -5.76 -1.88 z M267.485 12 l4.2 0 l0 25.32 l-1.44 0 l0 -23.88 l-1.32 0 l0 25.12 l4.04 0 l0 -26.56 l1.44 0 l0 28 l-6.92 0 l0 -28 z M302.81000000000006 28.6 l-16.36 -16.6 l-2 0 l19.8 20.12 l0 -17.32 l-1.44 0 l0 13.8 z M301.49000000000007 25.4 l0 -12 l4.08 0 l0 25.16 l-0.68 0 l-0.16 -0.16 l-18.32 -18.56 l0 20.16 l4.2 0 l0 -11.8 l-1.48 -1.52 l0 11.88 l-1.28 0 l0 -15.2 l16.6 16.64 l2.56 0 l0 -28 l-6.96 0 l0 11.84 z M285.0900000000001 40 l0 -23.4 l19.16 19.44 l0 -2.12 l-20.56 -20.76 l0 26.84 l1.4 0 z M315.61500000000007 12.079999999999998 l1.44 0 l0 26.48 l15.32 0 l0 -4 l-11.28 0 l0 -3.84 l1.44 0 l0 2.4 l11.28 0 l0 6.88 l-18.2 0 l0 -27.92 z M318.3350000000001 12.079999999999998 l15.28 0 l0 6.84 l-9.6 0 l0 -1.44 l8.16 0 l0 -3.96 l-12.4 0 l0 11.56 l9.32 0 l0 1.44 l-10.76 0 l0 -14.44 z M318.3350000000001 27.8 l12.16 0 l0 -4 l-9.4 0 l0 -9.08 l9.68 0 l0 1.44 l-8.24 0 l0 6.2 l9.4 0 l0 6.88 l-12.16 0 l0 6.64 l11.2 0 l0 1.44 l-12.64 0 l0 -9.52 z M343.06000000000006 12.079999999999998 l1.44 0 l0 26.48 l15.32 0 l0 -4 l-11.28 0 l0 -3.84 l1.44 0 l0 2.4 l11.28 0 l0 6.88 l-18.2 0 l0 -27.92 z M345.7800000000001 12.079999999999998 l15.28 0 l0 6.84 l-9.6 0 l0 -1.44 l8.16 0 l0 -3.96 l-12.4 0 l0 11.56 l9.32 0 l0 1.44 l-10.76 0 l0 -14.44 z M345.7800000000001 27.8 l12.16 0 l0 -4 l-9.4 0 l0 -9.08 l9.68 0 l0 1.44 l-8.24 0 l0 6.2 l9.4 0 l0 6.88 l-12.16 0 l0 6.64 l11.2 0 l0 1.44 l-12.64 0 l0 -9.52 z M389.5450000000001 38.56 l-4.6 0 l-5.52 -10.28 l-3.72 0.04 l0 10.24 l-4.04 0 l0 -26.56 l-1.44 0 l0 28 l6.96 0 l0 -10.28 l1.4 0 l5.48 10.28 l7.88 0 l-5.52 -10.32 l-1.32 0.52 z M380.02500000000003 13.440000000000001 c5.8 0 9.08 2.6 9.08 7.36 c0 4.32 -2.6 6.96 -7.12 7.44 l-1.08 0.12 l5 9.24 l1.64 0 l-4.36 -8.12 c4.8 -0.84 7.36 -3.76 7.36 -8.68 c0 -1.64 -0.36 -3.12 -1.04 -4.44 c-1.6 -2.84 -4.88 -4.36 -9.48 -4.36 l-7.08 0 l0 25.56 l1.44 0 l0 -24.12 l5.64 0 z M379.70500000000004 27.04 c5.48 0 8.08 -1.88 8.08 -6.04 c0 -3.96 -2.72 -6.2 -7.08 -6.2 l-5.04 0 l0 4.2 l4.6 0 c2.12 0 3.2 0.6 3.2 1.8 c0 1.4 -1.32 2.08 -4 2.08 l-2.32 0 l0 -2.48 l-1.48 0 l0 3.92 l3.8 0 c3.56 0 5.44 -1.24 5.44 -3.52 c0 -0.72 -0.16 -1.28 -0.52 -1.72 c-0.68 -1 -2.04 -1.48 -4.12 -1.48 l-3.12 0 l0 -1.36 l3.56 0 c3.56 0 5.64 1.72 5.64 4.76 c0 3.16 -2.12 4.64 -6.64 4.64 l-4 0 l0 1.4 l4 0 z"
            ></path>
          </g>
        </svg>