<?xml version="1.0" encoding="iso-8859-1"?>
<!-- Generator: Adobe Illustrator 19.0.0, SVG Export Plug-In . SVG Version: 6.00 Build 0)  -->
<svg version="1.1" id="Capa_1" xmlns="http://www.w3.org/2000/svg" xmlns:xlink="http://www.w3.org/1999/xlink" x="0px" y="0px"
	 viewBox="0 0 511.998 511.998" style="enable-background:new 0 0 511.998 511.998;" xml:space="preserve">
<g>
	<g>
		<path d="M255.998,40.32c-20.833,0-37.781,16.948-37.781,37.781s16.948,37.78,37.781,37.78s37.781-16.949,37.781-37.78
			C293.78,57.268,276.831,40.32,255.998,40.32z M255.998,100.802c-12.518,0-22.703-10.184-22.703-22.702
			s10.184-22.703,22.703-22.703s22.703,10.184,22.703,22.703S268.517,100.802,255.998,100.802z"/>
	</g>
</g>
<g>
	<g>
		<path d="M255.998,0c-4.165,0-7.539,3.376-7.539,7.539v10.08c0,4.164,3.375,7.539,7.539,7.539s7.539-3.376,7.539-7.539V7.539
			C263.538,3.376,260.163,0,255.998,0z"/>
	</g>
</g>
<g>
	<g>
		<path d="M218.563,30.002l-7.128-7.127c-2.943-2.944-7.717-2.943-10.662,0c-2.944,2.944-2.944,7.718,0.001,10.663l7.127,7.128
			c1.472,1.472,3.402,2.208,5.331,2.208s3.859-0.736,5.332-2.209C221.508,37.72,221.508,32.946,218.563,30.002z"/>
	</g>
</g>
<g>
	<g>
		<path d="M195.518,70.56h-10.08c-4.165,0-7.539,3.376-7.539,7.539c0,4.164,3.375,7.539,7.539,7.539h10.08
			c4.165,0,7.539-3.376,7.539-7.539C203.057,73.936,199.682,70.56,195.518,70.56z"/>
	</g>
</g>
<g>
	<g>
		<path d="M218.563,115.536c-2.945-2.944-7.718-2.944-10.664,0l-7.127,7.127c-2.944,2.944-2.944,7.718,0,10.662
			c1.473,1.472,3.403,2.209,5.332,2.209s3.859-0.736,5.332-2.209l7.127-7.127C221.507,123.254,221.507,118.48,218.563,115.536z"/>
	</g>
</g>
<g>
	<g>
		<path d="M255.998,131.042c-4.165,0-7.539,3.376-7.539,7.539v10.08c0,4.164,3.375,7.539,7.539,7.539s7.539-3.376,7.539-7.539
			v-10.08C263.538,134.418,260.163,131.042,255.998,131.042z"/>
	</g>
</g>
<g>
	<g>
		<path d="M311.225,122.665l-7.127-7.127c-2.944-2.944-7.718-2.945-10.663-0.001c-2.945,2.944-2.945,7.718-0.001,10.663l7.127,7.127
			c1.473,1.472,3.402,2.208,5.332,2.208c1.929,0,3.859-0.736,5.331-2.208C314.169,130.383,314.169,125.609,311.225,122.665z"/>
	</g>
</g>
<g>
	<g>
		<path d="M326.56,70.562h-10.08c-4.165,0-7.539,3.376-7.539,7.539s3.375,7.539,7.539,7.539h10.08c4.165,0,7.539-3.376,7.539-7.539
			S330.725,70.562,326.56,70.562z"/>
	</g>
</g>
<g>
	<g>
		<path d="M311.224,22.874c-2.943-2.944-7.717-2.943-10.662,0l-7.127,7.127c-2.944,2.944-2.944,7.718,0.001,10.663
			c1.471,1.473,3.401,2.209,5.33,2.209c1.929,0,3.859-0.736,5.332-2.209l7.127-7.127C314.169,30.593,314.169,25.819,311.224,22.874z
			"/>
	</g>
</g>
<g>
	<g>
		<path d="M465.123,386.181c-0.006-0.132-0.007-0.263-0.02-0.395c-0.026-0.265-0.066-0.526-0.12-0.782
			c-0.001-0.006-0.001-0.011-0.003-0.017l-13.427-63.778c-0.005-0.023-0.01-0.045-0.014-0.068l-13.426-63.774
			c-0.005-0.023-0.01-0.045-0.014-0.068l-13.439-63.837c-0.734-3.489-3.812-5.986-7.378-5.986H94.713
			c-3.566,0-6.643,2.497-7.378,5.986l-13.436,63.83c-0.006,0.027-0.012,0.053-0.017,0.08l-13.425,63.775
			c-0.004,0.018-0.008,0.037-0.011,0.055L47.02,384.981c-0.056,0.269-0.099,0.544-0.126,0.822c-0.006,0.064-0.005,0.13-0.01,0.194
			c-0.013,0.179-0.027,0.358-0.027,0.541v30.243c0,4.164,3.375,7.539,7.539,7.539h178.94v42.356h-57.982
			c-4.165,0-7.539,3.376-7.539,7.539v22.704H94.714c-4.165,0-7.539,3.376-7.539,7.539s3.375,7.539,7.539,7.539h80.641h161.285h80.63
			c4.165,0,7.539-3.376,7.539-7.539s-3.375-7.539-7.539-7.539H344.18v-22.704c0-4.164-3.375-7.539-7.539-7.539h-57.982V424.32H457.6
			c4.165,0,7.539-3.376,7.539-7.539v-30.108c0.001-0.01,0.001-0.022,0.001-0.034v-0.098
			C465.141,386.418,465.129,386.301,465.123,386.181z M448.311,379H330.23l-3.423-48.763h111.238L448.311,379z M424.605,266.396
			l10.267,48.763H325.749l-3.423-48.763H424.605z M411.165,202.555l10.267,48.763H321.268l-3.423-48.763H411.165z M209.265,202.555
			h93.465l3.423,48.763h-100.31L209.265,202.555z M204.786,266.396h102.425l3.423,48.763h-109.27L204.786,266.396z M200.307,330.238
			h111.385L315.114,379H196.885L200.307,330.238z M100.831,202.555h93.319l-3.422,48.763H90.565L100.831,202.555z M87.392,266.396
			H189.67l-3.422,48.763H77.126L87.392,266.396z M329.102,481.757v15.164H182.895v-15.164h57.982h30.244H329.102z M248.416,466.678
			v-42.356h15.165v42.356H248.416z M271.208,409.243c-0.029,0-0.058-0.004-0.087-0.004h-30.244c-0.029,0-0.058,0.004-0.087,0.004
			H61.935v-15.164h35.915c4.165,0,7.539-3.376,7.539-7.539c0-4.164-3.375-7.539-7.539-7.539H63.687l10.265-48.763H185.19
			L181.768,379h-51.314h-0.001c-4.165,0-7.539,3.376-7.539,7.539c0,4.164,3.375,7.539,7.539,7.539h0.001h58.337
			c0.005,0,0.009,0,0.014,0c0.003,0,0.007,0,0.01,0h134.367c0.003,0,0.007,0,0.01,0c0.005,0,0.009,0,0.014,0H450.06v15.164H271.208z
			"/>
	</g>
</g>
<g>
</g>
<g>
</g>
<g>
</g>
<g>
</g>
<g>
</g>
<g>
</g>
<g>
</g>
<g>
</g>
<g>
</g>
<g>
</g>
<g>
</g>
<g>
</g>
<g>
</g>
<g>
</g>
<g>
</g>
</svg>
